# 3ds Max Wavefront OBJ Exporter v0.97b - (c)2007 guruware
# File Created: 24.02.2017 18:06:53

#
# object Cylinder001
#

v  0.6538 -0.7175 0.0000
v  0.3904 -0.7175 -0.7389
v  0.3027 0.0000 -0.4689
v  0.3699 0.0000 0.0000
v  -0.6538 -0.7175 -0.0747
v  -0.4241 0.0000 -0.9078
v  -0.6538 -0.7175 0.0747
v  -0.4241 0.0000 0.9078
v  0.3904 -0.7175 0.7389
v  0.3027 0.0000 0.4689
v  0.0485 0.7175 -0.6867
v  0.5475 0.7175 0.0000
v  -0.7588 0.7175 -0.4244
v  -0.7588 0.7175 0.4244
v  0.0485 0.7175 0.6867
v  -0.1746 -0.7175 0.0000
v  -0.1746 0.7175 0.0000
# 17 vertices

vn 0.9866 0.1631 -0.0000
vn 0.3049 0.1631 -0.9383
vn 0.2961 0.2863 -0.9112
vn 0.9581 0.2863 -0.0000
vn -0.7982 0.1631 -0.5799
vn -0.7751 0.2863 -0.5632
vn -0.7982 0.1631 0.5799
vn -0.7751 0.2863 0.5632
vn 0.3049 0.1631 0.9383
vn 0.2961 0.2863 0.9112
vn 0.2787 0.4319 -0.8578
vn 0.9019 0.4319 -0.0000
vn -0.7297 0.4319 -0.5301
vn -0.7297 0.4319 0.5301
vn 0.2787 0.4319 0.8578
vn 0.0000 -1.0000 -0.0000
vn 0.0000 1.0000 -0.0000
# 17 vertex normals

vt 0.7500 0.0000 1.0000
vt 0.9500 0.0000 1.0000
vt 0.9500 0.5000 1.0000
vt 0.7500 0.5000 1.0000
vt 1.1500 0.0000 1.0000
vt 1.1500 0.5000 1.0000
vt 0.1500 0.0000 1.0000
vt 0.3500 0.0000 1.0000
vt 0.3500 0.5000 1.0000
vt 0.1500 0.5000 1.0000
vt 0.5500 0.0000 1.0000
vt 0.5500 0.5000 1.0000
vt 0.9500 1.0000 1.0000
vt 0.7500 1.0000 1.0000
vt 1.1500 1.0000 1.0000
vt 0.3500 1.0000 1.0000
vt 0.1500 1.0000 1.0000
vt 0.5500 1.0000 1.0000
vt 0.0245 0.6545 -0.2500
vt 0.5000 1.0000 -0.2500
vt 0.5000 0.5000 -0.2500
vt 0.2061 0.0955 -0.2500
vt 0.7939 0.0955 -0.2500
vt 0.9755 0.6545 -0.2500
vt 0.5000 1.0000 0.2500
vt 0.0245 0.6545 0.2500
vt 0.5000 0.5000 0.2500
vt 0.2061 0.0955 0.2500
vt 0.7939 0.0955 0.2500
vt 0.9755 0.6545 0.2500
# 30 texture coords

g Cylinder001
f 1/1/1 2/2/2 3/3/3 
f 3/3/3 4/4/4 1/1/1 
f 2/2/2 5/5/5 6/6/6 
f 6/6/6 3/3/3 2/2/2 
f 5/7/5 7/8/7 8/9/8 
f 8/9/8 6/10/6 5/7/5 
f 7/8/7 9/11/9 10/12/10 
f 10/12/10 8/9/8 7/8/7 
f 9/11/9 1/1/1 4/4/4 
f 4/4/4 10/12/10 9/11/9 
f 4/4/4 3/3/3 11/13/11 
f 11/13/11 12/14/12 4/4/4 
f 3/3/3 6/6/6 13/15/13 
f 13/15/13 11/13/11 3/3/3 
f 6/10/6 8/9/8 14/16/14 
f 14/16/14 13/17/13 6/10/6 
f 8/9/8 10/12/10 15/18/15 
f 15/18/15 14/16/14 8/9/8 
f 10/12/10 4/4/4 12/14/12 
f 12/14/12 15/18/15 10/12/10 
f 2/19/16 1/20/16 16/21/16 
f 5/22/16 2/19/16 16/21/16 
f 7/23/16 5/22/16 16/21/16 
f 9/24/16 7/23/16 16/21/16 
f 1/20/16 9/24/16 16/21/16 
f 12/25/17 11/26/17 17/27/17 
f 11/26/17 13/28/17 17/27/17 
f 13/28/17 14/29/17 17/27/17 
f 14/29/17 15/30/17 17/27/17 
f 15/30/17 12/25/17 17/27/17 
# 30 faces

